<svg width="42" height="58" viewBox="0 0 42 58" fill="none" xmlns="http://www.w3.org/2000/svg">
<g filter="url(#filter0_d_38_299)">
<path d="M37.6905 30.4989L35.2725 30.3982C35.2322 29.439 30.4366 25.8443 28.5868 24.4983C28.5851 24.4889 28.5851 24.4794 28.5868 24.4701C28.5974 24.389 28.5916 24.3067 28.5695 24.228C28.5474 24.1494 28.5096 24.076 28.4584 24.0123C28.4072 23.9487 28.3436 23.8961 28.2714 23.8577C28.1993 23.8193 28.1201 23.7959 28.0387 23.789L23.509 23.4102L23.4204 22.318H23.4526L27.7607 19.5212C27.8371 19.4714 27.9021 19.4058 27.9513 19.329C28.0005 19.2521 28.0328 19.1657 28.0462 19.0754C28.0595 18.9851 28.0535 18.8931 28.0286 18.8053C28.0037 18.7175 27.9605 18.636 27.9017 18.5661L27.8413 18.5057C28.208 17.0468 29.151 13.0289 28.6231 12.4406L30.0819 10.0588C30.0893 10.0475 30.0943 10.0348 30.0966 10.0216C30.099 10.0083 30.0987 9.99464 30.0957 9.98149C30.0927 9.96833 30.087 9.95592 30.0791 9.94497C30.0712 9.93403 30.0612 9.92478 30.0497 9.91778C30.0261 9.90436 29.9981 9.90065 29.9718 9.90741C29.9455 9.91418 29.9229 9.93091 29.9086 9.95406L28.4216 12.3721C27.7808 12.5897 27.7083 16.7849 27.7042 18.417C27.5867 18.3553 27.4529 18.3318 27.3214 18.3498C27.1899 18.3679 27.0673 18.4266 26.9708 18.5178L23.3801 21.8465L23.3357 21.2783C23.3144 21.0144 23.2385 20.7579 23.113 20.5248C22.9874 20.2917 22.8149 20.0872 22.6063 19.9242C24.3311 18.9893 25.5563 16.7647 25.5563 14.7941C25.5761 14.3751 25.5098 13.9565 25.3615 13.5642C25.2132 13.1718 24.9859 12.8141 24.6938 12.5131C25.7794 11.7367 26.7022 10.755 27.41 9.6236C28.6513 7.49174 32.8425 0.274036 32.8425 0.274036L32.3669 0L26.9385 9.34957C26.2399 10.4574 25.3291 11.4161 24.2586 12.1706C24.1809 12.1175 24.1002 12.0691 24.0168 12.0255C23.9561 11.6112 23.7623 11.2279 23.4647 10.9333C23.5856 9.64778 22.3162 9.21657 21.7076 9.08359C21.6887 9.07859 21.6686 9.07999 21.6506 9.08758C21.6326 9.09517 21.6175 9.10851 21.6079 9.12554C21.5982 9.14256 21.5945 9.16231 21.5972 9.18169C21.5999 9.20107 21.609 9.21901 21.623 9.23269C21.8607 9.5185 21.9943 9.87658 22.0018 10.2482C21.27 10.1193 20.5212 10.1193 19.7893 10.2482C19.7969 9.87658 19.9305 9.5185 20.1682 9.23269C20.1822 9.21901 20.1912 9.20107 20.194 9.18169C20.1967 9.16231 20.1929 9.14256 20.1833 9.12554C20.1736 9.10851 20.1586 9.09517 20.1406 9.08758C20.1225 9.07999 20.1025 9.07859 20.0835 9.08359C19.475 9.21657 18.2056 9.64778 18.3224 10.9333C18.0262 11.2289 17.8327 11.6117 17.7703 12.0255C17.6897 12.0698 17.6091 12.1182 17.5326 12.1706C16.4611 11.4171 15.5501 10.4582 14.8526 9.34957L9.4202 0L8.9487 0.274036C8.9487 0.274036 13.1399 7.49174 14.3811 9.6236C15.0888 10.7539 16.0101 11.7353 17.0933 12.5131C16.8017 12.8143 16.5751 13.1722 16.4275 13.5645C16.2798 13.9569 16.2143 14.3754 16.2349 14.7941C16.2349 16.7647 17.4439 18.9893 19.1848 19.9242C18.9755 20.0865 18.8025 20.2909 18.6768 20.5241C18.5512 20.7573 18.4758 21.0142 18.4554 21.2783L18.4071 21.8465L14.8204 18.5178C14.7239 18.4266 14.6013 18.3679 14.4698 18.3498C14.3383 18.3318 14.2044 18.3553 14.0869 18.417C14.0869 16.805 14.0104 12.6058 13.3696 12.3721L11.8825 9.95406C11.8773 9.93959 11.8689 9.92645 11.858 9.91558C11.8471 9.90471 11.8339 9.89638 11.8194 9.89118C11.8049 9.88598 11.7895 9.88404 11.7741 9.8855C11.7588 9.88695 11.744 9.89177 11.7307 9.8996C11.7175 9.90744 11.7061 9.91809 11.6974 9.93082C11.6888 9.94354 11.683 9.95802 11.6806 9.97322C11.6781 9.98843 11.6791 10.004 11.6833 10.0188C11.6876 10.0336 11.6951 10.0473 11.7052 10.0588L13.1641 12.4406C12.6402 13.0289 13.5671 17.0468 13.9499 18.5057L13.8895 18.5661C13.8301 18.6357 13.7863 18.7172 13.761 18.8051C13.7357 18.893 13.7296 18.9853 13.7429 19.0757C13.7563 19.1662 13.7889 19.2528 13.8385 19.3296C13.8881 19.4065 13.9536 19.4718 14.0305 19.5212L18.3386 22.318H18.3668L18.2821 23.4102L13.7524 23.789C13.671 23.7959 13.5919 23.8193 13.5197 23.8577C13.4476 23.8961 13.384 23.9487 13.3328 24.0123C13.2815 24.076 13.2437 24.1494 13.2217 24.228C13.1996 24.3067 13.1937 24.389 13.2044 24.4701C13.2026 24.4794 13.2026 24.4889 13.2044 24.4983C11.3627 25.8443 6.55892 29.439 6.51862 30.3982L4.10063 30.4989C4.07391 30.4989 4.04828 30.5095 4.02939 30.5284C4.01049 30.5473 3.99988 30.5729 3.99988 30.5997C3.99988 30.6264 4.01049 30.652 4.02939 30.6709C4.04828 30.6898 4.07391 30.7004 4.10063 30.7004L6.66772 30.5956C6.70899 30.6036 6.75139 30.6036 6.79265 30.5956V30.5956C6.80717 30.5996 6.82247 30.5996 6.83698 30.5956C7.97344 30.2813 11.7536 26.3279 13.285 24.6998C13.3489 24.8172 13.4503 24.9099 13.5729 24.9632C13.6956 25.0165 13.8325 25.0273 13.962 24.994L18.2539 23.8696L18.0605 26.2634L13.9177 29.1166C13.8506 29.1631 13.7937 29.2227 13.7502 29.2918C13.7068 29.3609 13.6778 29.438 13.665 29.5186C13.6522 29.5992 13.6559 29.6815 13.6757 29.7606C13.6956 29.8398 13.7313 29.9141 13.7806 29.979V30.0032C12.8538 32.0908 10.468 37.632 10.9274 38.4662L8.83183 40.9728C8.82219 40.9819 8.81451 40.9928 8.80926 41.0049C8.804 41.0171 8.8013 41.0301 8.8013 41.0434C8.8013 41.0566 8.804 41.0697 8.80926 41.0818C8.81451 41.0939 8.82219 41.1048 8.83183 41.1139C8.85014 41.1287 8.87276 41.1372 8.8963 41.1381C8.91161 41.1385 8.92683 41.1355 8.94079 41.1292C8.95476 41.123 8.96711 41.1136 8.97691 41.1018L11.1007 38.5669C11.9067 38.4178 13.3736 32.4696 13.9217 30.1402C14.0359 30.2098 14.1701 30.2393 14.303 30.224C14.4358 30.2086 14.5598 30.1494 14.6552 30.0556L17.9759 26.7833V26.876C17.822 28.7119 17.31 30.5 16.4686 32.1391C15.7795 33.4892 15.3725 35.3188 15.3725 37.6562C15.3725 43.3949 17.8308 50 20.8654 50C23.8999 50 26.3663 43.3626 26.3663 37.6239C26.4208 35.847 26.1009 34.0785 25.4273 32.4333C24.6124 30.6412 24.06 28.741 23.7871 26.7913L27.0756 30.0153C27.1709 30.1091 27.2949 30.1683 27.4277 30.1837C27.5606 30.199 27.6948 30.1695 27.809 30.0999C28.3531 32.4293 29.824 38.3775 30.63 38.5266L32.7578 41.0615C32.7672 41.0727 32.7789 41.0818 32.7921 41.0881C32.8053 41.0943 32.8198 41.0976 32.8344 41.0978C32.8593 41.0978 32.8835 41.0893 32.9029 41.0736C32.9214 41.0548 32.9317 41.0294 32.9317 41.0031C32.9317 40.9767 32.9214 40.9514 32.9029 40.9325L30.8033 38.4259C31.2627 37.6199 28.881 32.0625 27.9501 29.9629L27.9742 29.9387C28.023 29.8736 28.0583 29.7992 28.0778 29.7202C28.0974 29.6411 28.1009 29.559 28.0881 29.4786C28.0753 29.3981 28.0465 29.3211 28.0034 29.252C27.9604 29.1829 27.9038 29.1232 27.8372 29.0763L23.7226 26.2312C23.7025 26.0619 23.6823 25.8926 23.6662 25.7234L23.5171 23.8293L27.809 24.9537C27.9385 24.987 28.0754 24.9762 28.1981 24.9229C28.3207 24.8696 28.4221 24.7769 28.4861 24.6595C30.0054 26.2715 33.7815 30.241 34.934 30.5553C34.9499 30.5593 34.9665 30.5593 34.9824 30.5553C35.0237 30.5633 35.0661 30.5633 35.1073 30.5553L37.6744 30.6601C37.6874 30.6606 37.7005 30.6586 37.7127 30.6539C37.7249 30.6493 37.736 30.6423 37.7454 30.6332C37.7548 30.6242 37.7623 30.6134 37.7674 30.6014C37.7725 30.5893 37.7752 30.5764 37.7752 30.5634C37.7689 30.5455 37.7576 30.5299 37.7425 30.5185C37.7275 30.507 37.7094 30.5002 37.6905 30.4989Z" fill="white"/>
</g>
<defs>
<filter id="filter0_d_38_299" x="-0.00012207" y="0" width="41.7753" height="58" filterUnits="userSpaceOnUse" color-interpolation-filters="sRGB">
<feFlood flood-opacity="0" result="BackgroundImageFix"/>
<feColorMatrix in="SourceAlpha" type="matrix" values="0 0 0 0 0 0 0 0 0 0 0 0 0 0 0 0 0 0 127 0" result="hardAlpha"/>
<feOffset dy="4"/>
<feGaussianBlur stdDeviation="2"/>
<feComposite in2="hardAlpha" operator="out"/>
<feColorMatrix type="matrix" values="0 0 0 0 0 0 0 0 0 0 0 0 0 0 0 0 0 0 0.25 0"/>
<feBlend mode="normal" in2="BackgroundImageFix" result="effect1_dropShadow_38_299"/>
<feBlend mode="normal" in="SourceGraphic" in2="effect1_dropShadow_38_299" result="shape"/>
</filter>
</defs>
</svg>
