<svg width="42" height="51" viewBox="0 0 42 51" fill="none" xmlns="http://www.w3.org/2000/svg">
<path d="M30.2631 0C31.1361 0.530273 31.4552 1.07422 31.2952 1.76953C31.1235 2.51562 30.6647 2.83008 29.5715 2.95313C27.3406 3.20215 25.8401 4.67773 25.5442 6.88867C25.5006 7.21191 25.5665 7.42578 25.8236 7.64258C26.8042 8.47168 27.5103 9.49805 27.9711 10.8223C23.4064 8.12598 18.9115 8.12207 14.3556 10.8037C14.5661 9.9873 14.9657 9.33887 15.4371 8.73828C15.7659 8.32129 16.183 7.97461 16.5264 7.56641C16.665 7.40651 16.7415 7.20151 16.7417 6.98926C16.5215 4.70703 14.9337 3.15918 12.6242 2.94238C12.4152 2.93225 12.2077 2.90217 12.0044 2.85254C11.4001 2.67285 11.0538 2.24219 10.9781 1.625C10.9054 1.02246 11.1644 0.550781 11.6659 0.217773C11.7832 0.139648 11.9064 0.0722656 12.0277 0H13.1916C13.2472 0.0311064 13.3061 0.0556818 13.3672 0.0732422C16.5923 0.62793 18.768 2.66699 19.512 5.83008C19.5198 5.87246 19.5371 5.91251 19.5624 5.94727H22.7361C22.7439 5.91894 22.774 5.82812 22.7963 5.73535C23.4025 3.26172 24.8643 1.50879 27.2 0.533204C27.8023 0.281251 28.4609 0.173828 29.0992 0H30.2631Z" fill="white"/>
<path d="M20.7574 50C19.9174 49.6093 19.6409 48.9404 19.6778 48.0322C19.7282 46.7978 19.6778 45.5595 19.6981 44.3212C19.7049 43.954 19.6341 43.7851 19.2297 43.7158C17.6507 43.4361 16.1509 42.8147 14.8337 41.8945C14.729 41.8232 14.6291 41.7441 14.5825 41.7099C15.246 40.9179 15.9007 40.1367 16.5448 39.3554C16.6839 39.1965 16.7939 39.014 16.8697 38.8164C17.0715 38.2216 17.4449 38.0595 18.0705 38.0722C20.2675 38.1191 22.4655 38.0869 24.6663 38.0986C24.8322 38.0986 25.0873 38.164 25.1513 38.2802C25.8303 39.5556 26.6781 40.6884 27.8314 41.6308C26.5422 42.6017 25.0636 43.287 23.4927 43.6416C22.609 43.8369 22.6061 43.8251 22.6061 44.7158C22.6061 45.8212 22.5654 46.9296 22.6187 48.0361C22.6633 48.9492 22.3762 49.6123 21.5392 50.0029L20.7574 50Z" fill="white"/>
<path d="M21.2987 17.1612C21.126 17.6612 20.9505 18.1602 20.7817 18.6612C18.9145 24.1964 17.0182 29.7247 15.1859 35.2735C14.6748 36.8214 13.9744 38.1827 12.7436 39.2833C10.0917 41.6553 5.53958 41.5626 3.06518 39.0059C0.885658 36.754 0.203768 34.1104 1.27074 31.1231C1.54815 30.3419 2.02246 29.6055 2.53946 28.9542C5.96669 24.6339 9.4172 20.3298 12.891 16.0421C14.3906 14.1866 16.2131 12.7745 18.5362 12.1104C21.4597 11.2764 24.1621 11.8262 26.6675 13.4854C27.8421 14.2667 28.7956 15.2764 29.6744 16.3682C32.9768 20.477 36.2828 24.585 39.5924 28.6925C40.7903 30.1759 41.5042 31.836 41.5148 33.7784C41.5381 38.0313 37.5438 41.5733 33.3671 40.9454C30.2389 40.4747 28.1991 38.6915 27.2388 35.6524C25.3144 29.5528 23.3864 23.4548 21.4549 17.3585C21.4355 17.2979 21.4151 17.2374 21.3947 17.1768L21.2987 17.1612Z" fill="white"/>
<path d="M24.0281 35.1337H18.3053C18.5294 34.4589 18.7437 33.8085 18.9629 33.1591C19.2753 32.2264 19.2772 32.2264 20.2724 32.2264C21.1114 32.2264 21.9505 32.2186 22.7885 32.2352C22.9185 32.2352 23.129 32.3251 23.1619 32.4218C23.4636 33.3075 23.7362 34.205 24.0281 35.1337Z" fill="white"/>
<path d="M22.1814 29.2852H20.2725C20.5877 28.3477 20.8923 27.4395 21.1978 26.5312L21.3026 26.5244C21.5936 27.4316 21.8807 28.3389 22.1814 29.2852Z" fill="white"/>
</svg>
