<svg width="55" height="50" viewBox="0 0 55 50" fill="none" xmlns="http://www.w3.org/2000/svg">
<path d="M54.0307 10.2793V12.3884C53.9893 12.4809 53.9567 12.5771 53.9331 12.6757C53.318 16.8113 51.1175 19.7657 47.3317 21.5391C46.6265 21.87 45.8606 22.073 45.0829 22.3485C45.3544 24.364 45.2068 26.3702 44.4594 28.2803C43.7318 30.1389 42.8776 31.9514 42.0709 33.8245H43.5868V36.9657C42.9989 36.9657 42.44 36.9591 41.8824 36.9657C41.2233 36.9749 40.4548 36.8009 39.9183 37.0698C39.4016 37.3335 39.1168 38.0519 38.7319 38.5752C38.4195 39.0036 38.1124 39.436 37.7776 39.9013L41.1956 40.8649C40.9109 41.8812 40.6354 42.8672 40.3467 43.8967C38.9336 43.5012 37.5667 43.1374 36.2142 42.7274C35.7806 42.5956 35.5314 42.6747 35.2493 43.0346C34.5902 43.8716 33.8784 44.6638 33.1613 45.5048C32.1754 42.5851 30.2614 40.8345 27.1808 40.7845C24.1002 40.7344 22.1375 42.448 21.0486 45.3203C20.3724 44.5294 19.7054 43.7648 19.0714 42.9779C18.8407 42.6905 18.6285 42.6194 18.2805 42.7261C17.1073 43.0794 15.9249 43.401 14.7451 43.7319C14.55 43.7859 14.3497 43.8189 14.1296 43.8637L13.2912 40.8596L16.6196 39.9118C16.2017 39.3318 15.7654 38.8573 15.4807 38.3023C14.9033 37.1832 14.0584 36.7548 12.814 36.9393C12.1892 37.0329 11.538 36.9565 10.9066 36.9565V33.7929H12.4594C10.4545 30.1481 8.68549 26.5535 9.29581 22.3366C3.43916 21.0883 0.155591 16.1412 0.145045 11.2969C0.1345 6.39462 3.35743 1.96688 8.04486 0.52084C10.3372 -0.211329 12.8065 -0.170575 15.0734 0.63684C18.2976 1.77047 20.5069 4.00082 21.8567 7.10775C21.9687 7.07875 22.036 7.06426 22.1032 7.04448C25.3172 6.09789 28.7324 6.07186 31.9605 6.96935C32.3072 7.06557 32.4271 6.92848 32.5484 6.6543C33.1759 5.23997 34.0934 3.97312 35.2414 2.93574C41.0743 -2.40287 50.5955 -0.0960652 53.3004 7.3358C53.6352 8.2862 53.7894 9.3012 54.0307 10.2793ZM20.3381 30.6938C20.3363 30.9083 20.3776 31.121 20.4597 31.3193C20.5417 31.5175 20.6627 31.6972 20.8155 31.8477C20.9684 31.9982 21.15 32.1165 21.3494 32.1954C21.5489 32.2744 21.7622 32.3124 21.9766 32.3073C22.4011 32.3032 22.8074 32.1338 23.1089 31.835C23.4104 31.5361 23.5835 31.1315 23.5914 30.707C23.5908 30.2733 23.4198 29.8571 23.1153 29.5482C22.8108 29.2392 22.3972 29.0623 21.9635 29.0553C21.7489 29.0553 21.5365 29.0978 21.3384 29.1803C21.1404 29.2628 20.9606 29.3837 20.8095 29.536C20.6584 29.6884 20.539 29.8691 20.4581 30.0678C20.3772 30.2665 20.3364 30.4793 20.3381 30.6938ZM32.7725 32.306C32.987 32.3091 33.2001 32.2698 33.3994 32.1903C33.5987 32.1108 33.7803 31.9927 33.9338 31.8427C34.0873 31.6928 34.2097 31.514 34.2938 31.3166C34.378 31.1192 34.4223 30.9071 34.4241 30.6925C34.4197 30.2591 34.2452 29.8449 33.9382 29.5389C33.6313 29.2329 33.2164 29.0598 32.783 29.0567C32.3592 29.0601 31.9535 29.2293 31.6529 29.5282C31.3523 29.8271 31.1807 30.2318 31.1749 30.6556C31.1676 30.87 31.2036 31.0836 31.2807 31.2837C31.3579 31.4838 31.4745 31.6664 31.6238 31.8204C31.773 31.9745 31.9518 32.0968 32.1494 32.1803C32.347 32.2637 32.5593 32.3064 32.7738 32.306H32.7725Z" fill="white"/>
<path d="M27.1625 43.919C27.7633 43.9353 28.3459 44.1294 28.8365 44.4766C29.3272 44.8238 29.7039 45.3087 29.9192 45.8699C30.1344 46.4311 30.1785 47.0436 30.0459 47.6298C29.9133 48.2161 29.6099 48.7499 29.1741 49.1639C28.7382 49.5778 28.1895 49.8533 27.5972 49.9556C27.0048 50.0578 26.3955 49.9823 25.8461 49.7384C25.2967 49.4945 24.8319 49.0933 24.5104 48.5854C24.1889 48.0776 24.0251 47.4858 24.0397 46.8849C24.0482 46.4845 24.136 46.0899 24.2979 45.7236C24.4598 45.3574 24.6926 45.0268 24.9829 44.7511C25.2733 44.4753 25.6154 44.2598 25.9895 44.117C26.3636 43.9742 26.7622 43.9069 27.1625 43.919Z" fill="white"/>
</svg>
