<svg width="244" height="240" viewBox="0 0 244 240" fill="none" xmlns="http://www.w3.org/2000/svg">
<path d="M218.003 119.67C218.003 171.382 175.144 213.341 122.228 213.341C69.3126 213.341 26.4536 171.382 26.4536 119.67C26.4536 67.9582 69.3126 26 122.228 26C175.144 26 218.003 67.9582 218.003 119.67Z" stroke="#3D42EB" stroke-width="2"/>
<line x1="123.229" y1="189.341" x2="123.229" y2="239.341" stroke="#3D42EB" stroke-width="2"/>
<line x1="123.229" y1="-4.37114e-08" x2="123.229" y2="50" stroke="#3D42EB" stroke-width="2"/>
<line x1="50.4531" y1="120.67" x2="0.453123" y2="120.67" stroke="#3D42EB" stroke-width="2"/>
<line x1="243.343" y1="120.67" x2="193.343" y2="120.67" stroke="#3D42EB" stroke-width="2"/>
<circle cx="121.898" cy="119.67" r="25" fill="#3D42EB"/>
<path d="M121.335 114.697C118.554 114.496 114.167 114.697 108.182 110.19C102.611 105.996 101.365 166.869 121.335 167.31" stroke="white" stroke-width="5"/>
<path d="M121.291 114.697C123.882 114.697 128.504 114.697 134.489 110.19C140.059 105.996 141.306 166.869 121.335 167.31" stroke="white" stroke-width="5"/>
<path d="M121.447 114.865V167.386" stroke="white" stroke-width="5"/>
<path d="M104.63 122.366C100.589 121.108 94.8446 119.665 92.2907 119.665C87.5439 119.665 93.2585 126.324 78.0283 141.906" stroke="white" stroke-width="5"/>
<path d="M105.991 144.315C101.786 143.299 95.5156 139.402 92.9649 142.6C90.4142 145.797 93.3978 171.384 87.6562 180.389" stroke="white" stroke-width="5"/>
<path d="M136.628 144.315C140.834 143.299 147.378 139.402 149.929 142.6C152.48 145.797 149.496 171.384 155.238 180.389" stroke="white" stroke-width="5"/>
<path d="M138.041 122.366C142.082 121.108 147.826 119.665 150.38 119.665C155.127 119.665 149.412 126.324 164.643 141.906" stroke="white" stroke-width="5"/>
<path d="M121.336 93.8933C117.906 93.8933 113.204 94.482 109.379 100.27C108.304 101.898 105.643 108.241 107.935 110.085" stroke="white" stroke-width="5"/>
<path d="M121.337 93.8933C124.766 93.8933 129.469 94.482 133.293 100.27C134.369 101.898 137.03 108.241 134.738 110.085" stroke="white" stroke-width="5"/>
<path d="M121.582 86.6357C119.657 86.6357 117.018 86.9661 114.872 90.2145C114.268 91.1278 112.775 94.6878 114.061 95.7223" stroke="white" stroke-width="5"/>
<path d="M121.582 86.6357C123.507 86.6357 126.146 86.9661 128.292 90.2145C128.895 91.1278 130.303 94.7308 129.017 95.7653" stroke="white" stroke-width="5"/>
<path d="M106.785 107.033C103.799 106.731 98.6112 107.033 98.0165 104.451C96.5467 98.0698 97.4217 94.7035 94.8613 92.4956" stroke="white" stroke-width="5"/>
<path d="M135.887 107.033C138.873 106.731 144.061 107.033 144.655 104.451C146.125 98.0698 145.25 94.7035 147.811 92.4956" stroke="white" stroke-width="5"/>
<path d="M122.975 86.4629C123.877 81.4121 128.034 71.3105 142.975 71.3105C159.628 71.3105 172.563 102.058 171.408 126.238" stroke="white" stroke-width="5"/>
<path d="M119.944 86.4629C119.042 81.4121 114.885 71.3105 99.944 71.3105C83.2911 71.3105 70.356 102.058 71.5106 126.238" stroke="white" stroke-width="5"/>
</svg>
