<svg width="244" height="240" viewBox="0 0 244 240" fill="none" xmlns="http://www.w3.org/2000/svg">
<path d="M218.105 119.671C218.105 171.383 175.246 213.341 122.33 213.341C69.4141 213.341 26.5551 171.383 26.5551 119.671C26.5551 67.9585 69.4141 26.0002 122.33 26.0002C175.246 26.0002 218.105 67.9585 218.105 119.671Z" stroke="#3D42EB" stroke-width="2"/>
<line x1="123.33" y1="189.341" x2="123.33" y2="239.341" stroke="#3D42EB" stroke-width="2"/>
<line x1="123.33" y1="0.000244097" x2="123.33" y2="50.0002" stroke="#3D42EB" stroke-width="2"/>
<line x1="50.5546" y1="120.671" x2="0.554564" y2="120.671" stroke="#3D42EB" stroke-width="2"/>
<line x1="243.445" y1="120.671" x2="193.445" y2="120.671" stroke="#3D42EB" stroke-width="2"/>
<circle cx="122" cy="119.671" r="25" fill="#3D42EB"/>
<path d="M92.2479 155.764L102.125 165.641M92.2479 155.764L82.3705 165.641M92.2479 155.764V178.761" stroke="white" stroke-width="5"/>
<path d="M148.949 155.764L158.826 165.641M148.949 155.764L139.072 165.641M148.949 155.764V178.761" stroke="white" stroke-width="5"/>
<path d="M102.668 60.5798C100.461 78.1338 93.8172 101.901 79.597 110.433C69.0647 116.753 68.3624 135.31 82.4495 139.114C98.5909 143.473 93.052 138.314 107.486 149.986C116.037 156.901 119.666 157.122 121.999 157.122" stroke="white" stroke-width="5"/>
<path d="M141.331 60.5798C143.538 78.1338 150.182 101.901 164.402 110.433C174.934 116.753 175.636 135.31 161.549 139.114C145.408 143.473 150.947 138.314 136.513 149.986C127.962 156.901 124.333 157.122 122 157.122" stroke="white" stroke-width="5"/>
</svg>
