<svg width="55" height="65" viewBox="0 0 55 65" fill="none" xmlns="http://www.w3.org/2000/svg">
<path d="M36.4011 22.4625V22.5977L36.4693 22.7144L52.8211 50.7462C53.6143 52.1078 53.9248 53.6712 53.9298 55.2985C53.9347 56.8983 53.5179 58.471 52.7212 59.8583C51.9245 61.2456 50.7761 62.3984 49.3919 63.2004C48.0077 64.0024 46.4365 64.4253 44.8368 64.4265H9.63753C8.03776 64.4253 6.46658 64.0024 5.08236 63.2004C3.69815 62.3984 2.54982 61.2456 1.75313 59.8583C0.956442 58.471 0.53955 56.8983 0.544477 55.2985C0.549404 53.6987 0.975976 52.1285 1.7812 50.7462L18.133 22.7144L18.2011 22.5977V22.4625V7.32651V6.82651H17.7011H14.5011C13.7851 6.82651 13.0983 6.54205 12.592 6.0357C12.0856 5.52935 11.8011 4.8426 11.8011 4.12651C11.8011 3.41043 12.0856 2.72367 12.592 2.21733C13.0983 1.71098 13.7851 1.42651 14.5011 1.42651H40.1011C40.8172 1.42651 41.504 1.71098 42.0103 2.21733C42.5167 2.72367 42.8011 3.41043 42.8011 4.12651C42.8011 4.8426 42.5167 5.52935 42.0103 6.0357C41.504 6.54205 40.8172 6.82651 40.1011 6.82651H36.9011H36.4011V7.32651V22.4625ZM23.2233 24.6392L23.2232 24.6391L23.2187 24.6471L20.4667 29.4791L20.041 30.2265H20.9011H33.7011H34.5642L34.1349 29.4778L31.3829 24.6778L31.383 24.6778L31.3791 24.6713C31.1369 24.2632 31.0065 23.7984 31.0011 23.3238V7.32651V6.82651H30.5011H24.1011H23.6011V7.32651V23.3211C23.5907 23.7857 23.4606 24.2397 23.2233 24.6392ZM44.9651 58.9945L44.9682 58.9945C45.618 58.9906 46.3056 58.7935 46.8602 58.4711C47.4187 58.1464 47.8275 57.7354 48.1502 57.1765C48.4749 56.614 48.6459 55.976 48.6459 55.3265C48.6459 55.0073 48.6045 54.6201 48.5262 54.247C48.449 53.8795 48.3281 53.4877 48.1502 53.1794L48.1474 53.1748L37.9074 35.8719L37.7622 35.6265H37.4771H17.1571H16.8685L16.7241 35.8765L6.58015 53.4445L7.01315 53.6945L6.58014 53.4445C6.25539 54.007 6.08443 54.645 6.08443 55.2945C6.08443 55.944 6.25539 56.582 6.58013 57.1445C6.90298 57.7037 7.36654 58.1687 7.92477 58.4932C8.48299 58.8178 9.11643 58.9906 9.76213 58.9945H9.76515L44.9651 58.9945ZM19.4011 43.4815C19.8451 43.1849 20.3671 43.0265 20.9011 43.0265C21.6172 43.0265 22.304 43.311 22.8103 43.8173C23.3167 44.3237 23.6011 45.0104 23.6011 45.7265C23.6011 46.2605 23.4428 46.7825 23.1461 47.2266C22.8494 47.6706 22.4278 48.0166 21.9344 48.221C21.441 48.4253 20.8982 48.4788 20.3744 48.3746C19.8507 48.2705 19.3696 48.0133 18.992 47.6357C18.6144 47.2581 18.3572 46.777 18.253 46.2533C18.1488 45.7295 18.2023 45.1866 18.4067 44.6933C18.611 44.1999 18.9571 43.7782 19.4011 43.4815ZM32.2011 46.6815C32.6451 46.3849 33.1671 46.2265 33.7011 46.2265C34.4172 46.2265 35.104 46.511 35.6103 47.0173C36.1167 47.5237 36.4011 48.2104 36.4011 48.9265C36.4011 49.4605 36.2428 49.9825 35.9461 50.4266C35.6494 50.8706 35.2277 51.2166 34.7344 51.421C34.241 51.6253 33.6981 51.6788 33.1744 51.5746C32.6507 51.4705 32.1696 51.2133 31.792 50.8357C31.4144 50.4581 31.1572 49.977 31.053 49.4533C30.9488 48.9295 31.0023 48.3866 31.2067 47.8933C31.411 47.3999 31.7571 46.9782 32.2011 46.6815Z" fill="white" stroke="#3D42EB"/>
</svg>
