<svg width="64" height="66" viewBox="0 0 64 66" fill="none" xmlns="http://www.w3.org/2000/svg">
<path d="M62.4057 14.0977L60.5902 13.0514C60.8771 11.9622 60.8771 10.8173 60.5902 9.72812L62.4057 8.68189C62.6159 8.56066 62.8001 8.39923 62.9478 8.20682C63.0956 8.01441 63.2039 7.79478 63.2668 7.56047C63.3297 7.32616 63.3458 7.08177 63.3142 6.84124C63.2826 6.60071 63.2039 6.36876 63.0827 6.15863C62.9615 5.9485 62.8001 5.76431 62.6076 5.61657C62.4152 5.46882 62.1956 5.36043 61.9613 5.29756C61.727 5.2347 61.4826 5.21861 61.2421 5.25019C61.0015 5.28178 60.7696 5.36043 60.5595 5.48166L58.7439 6.52789C57.9438 5.74372 56.9599 5.17245 55.8822 4.86623V2.77378C55.8822 2.28411 55.6877 1.8145 55.3414 1.46825C54.9952 1.12201 54.5256 0.92749 54.0359 0.92749C53.5462 0.92749 53.0766 1.12201 52.7304 1.46825C52.3841 1.8145 52.1896 2.28411 52.1896 2.77378V4.86623C51.1119 5.17245 50.1281 5.74372 49.3279 6.52789L47.5124 5.48166C47.3022 5.36043 47.0703 5.28178 46.8298 5.25019C46.5892 5.21861 46.3448 5.2347 46.1105 5.29756C45.8762 5.36043 45.6566 5.46882 45.4642 5.61657C45.2718 5.76431 45.1103 5.9485 44.9891 6.15863C44.8679 6.36876 44.7892 6.60071 44.7576 6.84124C44.726 7.08177 44.7421 7.32616 44.805 7.56047C44.8679 7.79478 44.9763 8.01441 45.124 8.20682C45.2717 8.39923 45.4559 8.56066 45.6661 8.68189L47.4816 9.72812C47.1947 10.8173 47.1947 11.9622 47.4816 13.0514L45.6661 14.0977C45.3135 14.3006 45.0378 14.6143 44.8819 14.9901C44.726 15.3658 44.6985 15.7825 44.8037 16.1755C44.909 16.5684 45.1411 16.9156 45.464 17.1631C45.7868 17.4106 46.1824 17.5445 46.5892 17.5441C46.912 17.5354 47.2282 17.4511 47.5124 17.2979L49.3279 16.2517C50.1281 17.0358 51.1119 17.6071 52.1896 17.9133V20.0058C52.1896 20.4954 52.3841 20.9651 52.7304 21.3113C53.0766 21.6575 53.5462 21.8521 54.0359 21.8521C54.5256 21.8521 54.9952 21.6575 55.3414 21.3113C55.6877 20.9651 55.8822 20.4954 55.8822 20.0058V17.9133C56.9599 17.6071 57.9438 17.0358 58.7439 16.2517L60.5595 17.2979C60.8437 17.4511 61.1599 17.5354 61.4826 17.5441C61.8894 17.5445 62.285 17.4106 62.6078 17.1631C62.9307 16.9156 63.1628 16.5684 63.2681 16.1755C63.3733 15.7825 63.3459 15.3658 63.1899 14.9901C63.034 14.6143 62.7583 14.3006 62.4057 14.0977ZM54.0359 14.4669C53.4273 14.4669 52.8324 14.2865 52.3263 13.9483C51.8203 13.6102 51.4259 13.1296 51.193 12.5674C50.9601 12.0051 50.8992 11.3864 51.0179 10.7895C51.1366 10.1925 51.4297 9.64426 51.86 9.21391C52.2904 8.78356 52.8387 8.49049 53.4356 8.37176C54.0325 8.25303 54.6512 8.31397 55.2135 8.54687C55.7758 8.77977 56.2563 9.17418 56.5945 9.68021C56.9326 10.1862 57.1131 10.7812 57.1131 11.3898C57.1131 12.2059 56.7889 12.9886 56.2118 13.5656C55.6347 14.1427 54.852 14.4669 54.0359 14.4669ZM60.9903 28.1602C60.5048 28.2216 60.0635 28.4733 59.7635 28.8599C59.4635 29.2465 59.3292 29.7364 59.3901 30.2219C59.513 31.3254 59.5746 32.4349 59.5748 33.5452C59.5807 40.5957 56.8824 47.38 52.0358 52.5004C49.1277 48.0017 44.7931 44.61 39.7272 42.869C42.2561 41.1846 44.1758 38.7311 45.2026 35.8714C46.2294 33.0116 46.3087 29.8974 45.4288 26.9891C44.549 24.0808 42.7566 21.5328 40.3167 19.7219C37.8768 17.911 34.919 16.9332 31.8805 16.9332C28.842 16.9332 25.8841 17.911 23.4442 19.7219C21.0044 21.5328 19.212 24.0808 18.3321 26.9891C17.4522 29.8974 17.5315 33.0116 18.5583 35.8714C19.5851 38.7311 21.5049 41.1846 24.0337 42.869C18.9678 44.61 14.6332 48.0017 11.7252 52.5004C8.01486 48.5686 5.53792 43.6357 4.60045 38.3115C3.66298 32.9874 4.30607 27.5052 6.45024 22.5425C8.59441 17.5798 12.1457 13.3541 16.6652 10.3876C21.1847 7.42117 26.4744 5.84396 31.8805 5.85092C32.7436 5.84585 33.6065 5.88694 34.4653 5.97401C34.9504 6.01685 35.4329 5.86625 35.8075 5.55502C36.1821 5.24379 36.4186 4.79714 36.4654 4.31235C36.5086 3.82386 36.359 3.33785 36.0484 2.9583C35.7379 2.57875 35.2911 2.3358 34.8038 2.28143C33.8191 2.18912 32.8652 2.15835 31.8805 2.15835C25.5523 2.15856 19.3721 4.0716 14.1504 7.64649C8.9288 11.2214 4.90972 16.2911 2.62044 22.1907C0.331173 28.0902 -0.121357 34.5439 1.32222 40.7052C2.7658 46.8665 6.03806 52.4475 10.7097 56.7161L11.079 57.0238C16.8118 62.1154 24.213 64.9275 31.8805 64.9275C39.5479 64.9275 46.9491 62.1154 52.682 57.0238L53.0512 56.7161C56.273 53.7777 58.8458 50.1989 60.605 46.209C62.3642 42.219 63.271 37.9058 63.2673 33.5452C63.2732 32.2906 63.2012 31.0368 63.0519 29.7911C62.9903 29.3034 62.7398 28.8594 62.3543 28.5545C61.9687 28.2495 61.479 28.108 60.9903 28.1602ZM21.4182 31.0835C21.4182 29.0143 22.0318 26.9915 23.1814 25.271C24.331 23.5504 25.965 22.2095 27.8767 21.4176C29.7885 20.6257 31.8921 20.4185 33.9216 20.8222C35.951 21.2259 37.8152 22.2224 39.2784 23.6855C40.7416 25.1487 41.738 27.0129 42.1417 29.0424C42.5454 31.0719 42.3382 33.1755 41.5464 35.0872C40.7545 36.999 39.4135 38.633 37.693 39.7826C35.9725 40.9322 33.9497 41.5458 31.8805 41.5458C29.1082 41.5377 26.4518 40.4328 24.4915 38.4725C22.5312 36.5122 21.4263 33.8558 21.4182 31.0835ZM14.4638 55.0852C16.2738 52.0846 18.8284 49.6025 21.8799 47.8795C24.9313 46.1565 28.3762 45.2512 31.8805 45.2512C35.3848 45.2512 38.8296 46.1565 41.8811 47.8795C44.9325 49.6025 47.4871 52.0846 49.2971 55.0852C44.3656 59.0668 38.2187 61.2385 31.8805 61.2385C25.5422 61.2385 19.3953 59.0668 14.4638 55.0852Z" fill="white" stroke="white" stroke-width="0.2"/>
</svg>
