<svg width="65" height="65" viewBox="0 0 65 65" fill="none" xmlns="http://www.w3.org/2000/svg">
<path d="M32.6057 14.398C32.6057 13.8709 32.3963 13.3653 32.0235 12.9926C31.6508 12.6198 31.1452 12.4104 30.6181 12.4104C30.091 12.4104 29.5854 12.6198 29.2127 12.9926C28.8399 13.3653 28.6305 13.8709 28.6305 14.398V36.2614C28.6306 36.6117 28.7233 36.9558 28.8993 37.2588C29.0752 37.5617 29.328 37.8128 29.6322 37.9866L43.5453 45.9369C44.0019 46.1836 44.5369 46.242 45.0359 46.0996C45.535 45.9571 45.9585 45.6251 46.216 45.1745C46.4735 44.7238 46.5445 44.1904 46.4139 43.6881C46.2833 43.1858 45.9614 42.7545 45.517 42.4865L32.6057 35.1086V14.398Z" fill="white"/>
<path d="M32.6057 64.0875C41.0399 64.0875 49.1287 60.737 55.0925 54.7731C61.0564 48.8092 64.4069 40.7204 64.4069 32.2862C64.4069 23.852 61.0564 15.7632 55.0925 9.79933C49.1287 3.83544 41.0399 0.484963 32.6057 0.484963C24.1714 0.484963 16.0827 3.83544 10.1188 9.79933C4.1549 15.7632 0.804421 23.852 0.804421 32.2862C0.804421 40.7204 4.1549 48.8092 10.1188 54.7731C16.0827 60.737 24.1714 64.0875 32.6057 64.0875ZM60.4318 32.2862C60.4318 39.6661 57.5001 46.7438 52.2817 51.9622C47.0633 57.1806 39.9856 60.1123 32.6057 60.1123C25.2257 60.1123 18.1481 57.1806 12.9296 51.9622C7.71124 46.7438 4.77958 39.6661 4.77958 32.2862C4.77958 24.9063 7.71124 17.8286 12.9296 12.6102C18.1481 7.39179 25.2257 4.46012 32.6057 4.46012C39.9856 4.46012 47.0633 7.39179 52.2817 12.6102C57.5001 17.8286 60.4318 24.9063 60.4318 32.2862Z" fill="white"/>
<path fill-rule="evenodd" clip-rule="evenodd" d="M9.97805 9.6586C15.9792 3.65743 24.1185 0.286011 32.6055 0.286011C41.0924 0.286011 49.2317 3.65743 55.2329 9.6586C61.2341 15.6598 64.6055 23.7991 64.6055 32.286C64.6055 40.7729 61.2341 48.9123 55.2329 54.9134C49.2317 60.9146 41.0924 64.286 32.6055 64.286C24.1185 64.286 15.9792 60.9146 9.97805 54.9134C3.97689 48.9123 0.605469 40.7729 0.605469 32.286C0.605469 23.7991 3.97689 15.6598 9.97805 9.6586ZM32.6055 0.683526C24.224 0.683526 16.1858 4.01307 10.2591 9.93968C4.33252 15.8663 1.00298 23.9045 1.00298 32.286C1.00298 40.6675 4.33252 48.7057 10.2591 54.6323C16.1858 60.559 24.224 63.8885 32.6055 63.8885C40.987 63.8885 49.0252 60.559 54.9518 54.6323C60.8784 48.7057 64.208 40.6675 64.208 32.286C64.208 23.9045 60.8784 15.8663 54.9518 9.93968C49.0252 4.01307 40.987 0.683526 32.6055 0.683526ZM32.6055 4.65868C25.2782 4.65868 18.2511 7.56941 13.07 12.7505C7.88887 17.9317 4.97814 24.9588 4.97814 32.286C4.97814 39.6132 7.88887 46.6404 13.07 51.8215C18.2511 57.0026 25.2782 59.9133 32.6055 59.9133C39.9327 59.9133 46.9598 57.0026 52.1409 51.8215C57.3221 46.6404 60.2328 39.6132 60.2328 32.286C60.2328 24.9588 57.3221 17.9317 52.1409 12.7505C46.9598 7.56941 39.9327 4.65868 32.6055 4.65868ZM12.7889 12.4695C18.0446 7.21378 25.1728 4.26117 32.6055 4.26117C40.0381 4.26117 47.1664 7.21378 52.422 12.4695C57.6777 17.7251 60.6303 24.8534 60.6303 32.286C60.6303 39.7187 57.6777 46.8469 52.422 52.1026C47.1664 57.3582 40.0381 60.3109 32.6055 60.3109C25.1728 60.3109 18.0446 57.3582 12.7889 52.1026C7.53323 46.8469 4.58062 39.7187 4.58062 32.286C4.58062 24.8534 7.53323 17.7251 12.7889 12.4695ZM29.0719 12.8518C29.4819 12.4418 30.038 12.2115 30.6179 12.2115C31.1977 12.2115 31.7538 12.4418 32.1639 12.8518C32.5739 13.2619 32.8042 13.818 32.8042 14.3978V34.993L45.6154 42.3137L45.6194 42.3161C46.1083 42.611 46.4624 43.0854 46.6061 43.6379C46.7497 44.1904 46.6716 44.7772 46.3884 45.2729C46.1051 45.7685 45.6392 46.1338 45.0903 46.2905C44.5413 46.4472 43.9528 46.383 43.4506 46.1116L43.4465 46.1093L29.5335 38.159C29.1989 37.9678 28.9207 37.6916 28.7272 37.3584C28.5337 37.0251 28.4317 36.6466 28.4316 36.2612V14.3978C28.4316 13.818 28.6619 13.2619 29.0719 12.8518ZM30.6179 12.609C30.1435 12.609 29.6885 12.7975 29.353 13.1329C29.0175 13.4684 28.8291 13.9234 28.8291 14.3978V36.2611C28.8292 36.5764 28.9126 36.8861 29.0709 37.1588C29.2293 37.4314 29.4569 37.6574 29.7306 37.8138L43.6396 45.7618L43.6416 45.7629C44.0521 45.9841 44.5327 46.0363 44.9812 45.9082C45.4303 45.78 45.8115 45.4812 46.0432 45.0756C46.275 44.6701 46.3389 44.19 46.2213 43.7379C46.104 43.2866 45.815 42.899 45.416 42.6576L45.4141 42.6565L32.4067 35.2237V14.3978C32.4067 13.9234 32.2183 13.4684 31.8828 13.1329C31.5473 12.7975 31.0923 12.609 30.6179 12.609Z" fill="white"/>
</svg>
