<svg width="37" height="36" viewBox="0 0 37 36" fill="none" xmlns="http://www.w3.org/2000/svg">
<path d="M18.5352 35.8619C28.3051 35.8619 36.2252 27.9418 36.2252 18.1719C36.2252 8.40201 28.3051 0.481934 18.5352 0.481934C8.7653 0.481934 0.845215 8.40201 0.845215 18.1719C0.845215 27.9418 8.7653 35.8619 18.5352 35.8619Z" fill="url(#paint0_linear_38_374)"/>
<path d="M24.0252 11.4819C23.7839 11.4819 23.548 11.5535 23.3474 11.6875C23.1468 11.8216 22.9904 12.0121 22.898 12.2351C22.8057 12.458 22.7815 12.7033 22.8286 12.9399C22.8757 13.1766 22.9919 13.394 23.1625 13.5646C23.3331 13.7352 23.5505 13.8514 23.7872 13.8985C24.0238 13.9456 24.2691 13.9214 24.4921 13.8291C24.715 13.7367 24.9055 13.5804 25.0396 13.3797C25.1736 13.1791 25.2452 12.9432 25.2452 12.7019C25.2452 12.3784 25.1166 12.0681 24.8879 11.8393C24.6591 11.6105 24.3487 11.4819 24.0252 11.4819Z" fill="white"/>
<path d="M18.6154 13.0415C17.6047 13.0415 16.6167 13.3412 15.7764 13.9027C14.9361 14.4642 14.2811 15.2623 13.8944 16.196C13.5076 17.1297 13.4064 18.1572 13.6036 19.1484C13.8007 20.1397 14.2874 21.0502 15.0021 21.7648C15.7167 22.4795 16.6272 22.9661 17.6184 23.1633C18.6097 23.3605 19.6371 23.2593 20.5709 22.8725C21.5046 22.4858 22.3027 21.8308 22.8642 20.9905C23.4257 20.1501 23.7254 19.1622 23.7254 18.1515C23.7254 16.7962 23.187 15.4965 22.2287 14.5382C21.2704 13.5799 19.9706 13.0415 18.6154 13.0415ZM18.6154 21.4215C17.9691 21.4195 17.3378 21.2261 16.8014 20.8656C16.265 20.505 15.8474 19.9937 15.6014 19.396C15.3555 18.7983 15.2921 18.1411 15.4194 17.5074C15.5467 16.8738 15.8589 16.2921 16.3167 15.8358C16.7744 15.3794 17.3571 15.069 17.9911 14.9436C18.6251 14.8183 19.2821 14.8836 19.879 15.1314C20.476 15.3792 20.9861 15.7983 21.345 16.3358C21.7038 16.8734 21.8954 17.5052 21.8954 18.1515C21.8927 19.0197 21.546 19.8514 20.9312 20.4644C20.3163 21.0773 19.4835 21.4215 18.6154 21.4215Z" fill="white"/>
<path d="M22.675 28.5217H14.395C12.7427 28.5217 11.1581 27.8654 9.98975 26.697C8.82139 25.5287 8.16504 23.944 8.16504 22.2917V14.0117C8.16504 12.3594 8.82139 10.7748 9.98975 9.60646C11.1581 8.43811 12.7427 7.78174 14.395 7.78174H22.675C24.3273 7.78174 25.9119 8.43811 27.0803 9.60646C28.2486 10.7748 28.905 12.3594 28.905 14.0117V22.2917C28.905 23.944 28.2486 25.5287 27.0803 26.697C25.9119 27.8654 24.3273 28.5217 22.675 28.5217ZM14.395 9.73174C13.2599 9.73174 12.1713 10.1827 11.3686 10.9853C10.566 11.788 10.115 12.8766 10.115 14.0117V22.2917C10.115 23.4269 10.566 24.5155 11.3686 25.3181C12.1713 26.1208 13.2599 26.5717 14.395 26.5717H22.675C23.8101 26.5717 24.8988 26.1208 25.7014 25.3181C26.5041 24.5155 26.955 23.4269 26.955 22.2917V14.0117C26.955 12.8766 26.5041 11.788 25.7014 10.9853C24.8988 10.1827 23.8101 9.73174 22.675 9.73174H14.395Z" fill="white"/>
<defs>
<linearGradient id="paint0_linear_38_374" x1="1.96521" y1="4.18193" x2="37.3352" y2="34.0519" gradientUnits="userSpaceOnUse">
<stop stop-color="#FBE18A"/>
<stop offset="0.21" stop-color="#FCBB45"/>
<stop offset="0.38" stop-color="#F75274"/>
<stop offset="0.52" stop-color="#D53692"/>
<stop offset="0.74" stop-color="#8F39CE"/>
<stop offset="1" stop-color="#5B4FE9"/>
</linearGradient>
</defs>
</svg>
