<svg width="42" height="42" viewBox="0 0 42 42" fill="none" xmlns="http://www.w3.org/2000/svg">
<path d="M38.4499 23.9788C40.0002 14.3327 33.4371 5.25624 23.791 3.706C14.1449 2.15576 5.06839 8.71879 3.51814 18.3649C1.9679 28.0111 8.53093 37.0875 18.1771 38.6378C27.8232 40.188 36.8997 33.625 38.4499 23.9788Z" fill="#00D95F"/>
<path d="M11.4143 31.1593L12.8943 25.6593C11.7054 23.5222 11.3272 21.028 11.8292 18.6345C12.3312 16.2411 13.6797 14.109 15.6271 12.6297C17.5745 11.1503 19.9901 10.4231 22.4305 10.5814C24.8709 10.7397 27.1724 11.7729 28.9123 13.4914C30.6523 15.2099 31.714 17.4983 31.9026 19.9365C32.0912 22.3748 31.394 24.7993 29.939 26.7649C28.484 28.7305 26.3688 30.1054 23.9818 30.637C21.5947 31.1687 19.096 30.8216 16.9443 29.6593L11.4143 31.1593ZM17.2243 27.6193L17.5743 27.8293C19.3159 28.8722 21.3791 29.2415 23.3744 28.8675C25.3696 28.4935 27.159 27.4021 28.4047 25.7993C29.6505 24.1964 30.2664 22.1931 30.1363 20.1672C30.0062 18.1414 29.1391 16.2332 27.6986 14.8029C26.2581 13.3726 24.3438 12.519 22.3171 12.4033C20.2904 12.2876 18.2914 12.9177 16.6975 14.1748C15.1035 15.4318 14.0248 17.2289 13.665 19.2268C13.3052 21.2246 13.6891 23.2851 14.7443 25.0193L14.9543 25.3793L14.1343 28.4493L17.2243 27.6193Z" fill="white"/>
<path fill-rule="evenodd" clip-rule="evenodd" d="M25.5546 22.1592C25.3528 21.9997 25.1175 21.888 24.8664 21.8325C24.6152 21.7771 24.3547 21.7794 24.1046 21.8392C23.7246 21.9892 23.4846 22.5792 23.2346 22.8892C23.1809 22.9591 23.1042 23.0076 23.018 23.0259C22.9319 23.0442 22.842 23.0312 22.7646 22.9892C21.3875 22.441 20.2331 21.4485 19.4846 20.1692C19.4206 20.0887 19.3901 19.9866 19.3994 19.8842C19.4087 19.7818 19.4571 19.6869 19.5346 19.6192C19.8146 19.3427 20.0179 18.9981 20.1246 18.6192C20.1495 18.2189 20.0593 17.8199 19.8646 17.4692C19.7107 16.9695 19.4155 16.525 19.0146 16.1892C18.8089 16.0945 18.58 16.062 18.3561 16.0957C18.1322 16.1295 17.9231 16.2281 17.7546 16.3792C17.4659 16.6247 17.2361 16.9318 17.0821 17.278C16.928 17.6242 16.8537 18.0005 16.8646 18.3792C16.8659 18.595 16.8928 18.8098 16.9446 19.0193C17.0802 19.5237 17.2891 20.0055 17.5646 20.4492C17.7646 20.7792 17.9746 21.1092 18.2046 21.4492C18.9631 22.4842 19.9137 23.3636 21.0046 24.0392C21.5498 24.3836 22.1338 24.6622 22.7446 24.8692C23.3706 25.153 24.0613 25.2635 24.7446 25.1892C25.141 25.1318 25.5168 24.9764 25.838 24.7372C26.1593 24.498 26.4159 24.1825 26.5846 23.8192C26.6832 23.6035 26.7146 23.3631 26.6746 23.1292C26.5946 22.6792 25.9646 22.3792 25.5546 22.1592Z" fill="white"/>
</svg>
