<svg width="37" height="65" viewBox="0 0 37 65" fill="none" xmlns="http://www.w3.org/2000/svg">
<path d="M3.684 15.6071C3.92981 15.5826 4.1367 15.5559 4.3458 15.5415C5.54149 15.4581 6.57034 15.8752 7.4457 16.6537C8.10528 17.2399 8.35998 18.0152 8.28657 18.8783C8.21317 19.7414 8.10972 20.6079 8.00851 21.4721C7.86648 22.5754 7.87695 23.6929 8.03965 24.7933C8.19759 25.7777 9.12189 26.2515 9.99836 25.7944C10.892 25.3333 11.6548 24.6543 12.2162 23.8201C12.3186 23.6666 12.4276 23.5153 12.5188 23.3541C13.462 21.6745 14.7833 20.3231 16.2082 19.054C16.5967 18.6975 16.954 18.3082 17.2759 17.8906C17.6252 17.4524 17.5173 17.0842 17.0112 16.8395C16.4551 16.5737 15.8845 16.5692 15.3017 16.716C13.9469 17.0579 12.5922 17.4008 11.2374 17.7449L10.8148 17.8505L10.7781 17.776L12.5043 16.7194L11.392 16.1744L11.4054 16.1054L12.9025 15.7194C13.4957 15.5711 14.0889 15.421 14.6821 15.269C14.8189 15.2345 14.9724 15.2156 14.9124 15.0109C14.8612 14.8374 14.9391 14.5938 14.6121 14.5838C13.6043 14.5527 12.5955 14.5015 11.5878 14.4548C11.2975 14.4414 11.0083 14.4159 10.7191 14.3958V14.3269L14.5587 13.7374C14.6599 13.1401 14.76 12.5962 14.8412 12.0512C14.8565 11.9134 14.8444 11.7739 14.8056 11.6407C14.6154 10.9378 14.3607 10.2849 13.7278 9.82552C12.4954 8.92681 11.6935 7.66549 10.9282 6.37748C10.8988 6.31936 10.8728 6.25957 10.8504 6.19841C12.4164 6.50762 13.928 6.82128 15.2783 7.66216C17.2804 4.84255 20.1923 4.28419 23.3979 4.30978C23.6426 3.19083 23.8973 2.03074 24.1687 0.78833C24.3489 1.003 24.4946 1.15204 24.6136 1.32111C25.0418 1.93397 25.2042 2.65027 25.3922 3.35767C25.6758 4.44881 25.9483 5.54217 26.2686 6.6233C26.4516 7.26929 26.8249 7.84523 27.3397 8.27613C27.9161 8.76074 28.3575 9.38601 28.6211 10.0914L32.4273 9.26827L32.4495 9.32945C32.3461 9.38284 32.2449 9.44067 32.1392 9.48961L29.0671 10.9189C28.7056 11.0868 28.7012 11.0957 28.7935 11.5607L32.4428 11.019L32.4629 11.0835L28.957 12.3448L32.0013 13.4827V13.5427C31.9372 13.5584 31.8722 13.5703 31.8066 13.5783C30.8278 13.635 29.8468 13.6895 28.868 13.7496C28.8087 13.7515 28.7505 13.766 28.6972 13.7921C28.6439 13.8181 28.5967 13.8552 28.5588 13.9009C28.0584 14.9937 27.22 15.8967 26.1674 16.4769C26.4276 16.6486 26.7266 16.7526 27.0372 16.7794C27.5455 16.8017 28.0527 16.8362 28.5599 16.8762C29.0671 16.9162 29.492 17.1576 29.8602 17.5013C30.9112 18.4834 31.503 19.7147 31.7132 21.1128C31.8446 22.0384 31.9189 22.9711 31.9356 23.9057C32.0235 27.2014 32.0825 30.497 32.1503 33.7927C32.174 34.5159 32.3281 35.2288 32.6052 35.8971C32.8155 36.4299 33.1914 36.7313 33.7765 36.768C34.3615 36.8047 34.9343 36.8726 35.4793 37.1195C35.8662 37.2854 36.1817 37.583 36.3699 37.9596C36.558 38.3361 36.6067 38.7671 36.5071 39.1761C36.4125 39.5354 36.2668 39.7189 35.8186 40.0314C35.8575 40.0882 35.8953 40.1427 35.9365 40.2027C36.5471 41.008 36.8975 41.9023 36.8986 42.9256C36.9053 49.4924 36.9145 56.0589 36.9264 62.625C36.9264 63.19 36.9264 63.755 36.9353 64.3189C36.9353 64.5514 36.8574 64.6248 36.6294 64.6159C36.2234 64.6004 35.8175 64.6159 35.3837 64.6159C35.3748 64.4524 35.3625 64.3267 35.3625 64.201C35.3462 57.0603 35.3299 49.9195 35.3136 42.7787C35.3136 41.6665 34.4349 40.6365 33.3327 40.4852C32.3572 40.3507 31.4251 40.4852 30.6043 41.0759C30.0481 41.4696 29.76 42.0013 29.8846 42.702C29.9569 43.1057 30.225 43.3694 30.552 43.584C31.0351 43.8818 31.577 44.0715 32.1403 44.1402C32.3361 44.1702 32.4095 44.2369 32.3984 44.4382C32.3817 44.7408 32.3984 45.0444 32.3984 45.3425C31.3094 45.4537 29.4442 45.0277 28.8146 43.7531C28.6218 43.3564 28.5152 42.9235 28.5016 42.4827C28.4881 42.0419 28.568 41.6032 28.7361 41.1955C28.9042 40.7878 29.1566 40.4202 29.4769 40.1171C29.7972 39.8139 30.1779 39.5819 30.5942 39.4364C30.7133 39.3963 30.8334 39.3596 30.9869 39.3096C30.9101 39.2495 30.8645 39.2061 30.8134 39.175C29.9236 38.6311 29.3674 37.8781 29.2718 36.807C29.135 35.3154 28.9147 33.8294 28.8335 32.3356C28.7829 31.317 28.4769 30.3275 27.9437 29.4582C27.7398 29.0952 27.5113 28.7466 27.2597 28.4149C27.1484 28.8598 27.0205 29.2947 26.9149 29.7385C26.5245 31.3668 26.1474 33.0052 26.0395 34.677C25.9832 35.7764 26.0047 36.8784 26.104 37.9748C26.1652 38.7812 26.3543 39.581 26.5122 40.3785C26.5632 40.5923 26.6571 40.7936 26.7881 40.9702C27.7146 42.2938 28.5999 43.6396 29.0771 45.1968C29.2314 45.7675 29.329 46.3521 29.3685 46.942C29.4564 47.844 29.522 48.7505 29.314 49.6503C29.0793 50.6647 28.5354 51.5034 27.8414 52.2553C26.5236 53.6881 24.8377 54.7316 22.9674 55.2717C22.755 55.3351 22.6894 55.4241 22.6615 55.6455C22.4769 57.0803 22.8139 58.4417 23.2021 59.7987C23.3133 60.198 23.4635 60.5917 23.548 60.9977C23.6326 61.4037 23.855 61.6439 24.261 61.783C25.034 62.0477 25.4011 62.9942 25.034 63.7261C24.7359 64.3201 24.2187 64.6159 23.5714 64.6949C22.8584 64.775 22.2522 64.4991 21.6805 64.1043C21.2267 63.7906 20.9097 63.3991 20.8118 62.8407C20.5816 61.5205 20.3191 60.2058 20.11 58.8822C19.9343 57.7766 19.803 56.6654 19.4426 55.5976C19.3937 55.4508 19.3314 55.3641 19.1601 55.3507C17.6029 55.2261 16.0725 54.9525 14.7177 54.1272C14.6666 54.1639 14.6354 54.1739 14.6254 54.1951C13.75 56.0381 13.4686 57.9501 13.9647 59.9477C14.0832 60.416 14.3186 60.8465 14.6488 61.199C15.0676 61.6689 15.4561 62.1649 15.8122 62.6839C16.2315 63.2845 15.8878 64.2333 15.117 64.5381C13.8613 65.0352 12.828 64.8061 12.0027 63.8496C11.402 63.1577 11.1262 62.3235 11.0016 61.446C10.8782 60.5406 10.7603 59.6229 10.7792 58.712C10.807 57.0436 10.9293 55.3685 11.0216 53.6979C11.0506 53.1807 11.1062 52.6657 11.1551 52.1507C11.1692 52.0498 11.1927 51.9504 11.2252 51.8537C11.4387 51.1463 11.7591 50.8738 12.4987 50.836C12.9225 50.8149 13.3485 50.8516 13.7734 50.8694C13.928 50.8761 14.0815 50.905 14.2717 50.9283C14.1505 50.2098 14.0615 49.5235 13.9147 48.8506C13.7145 47.9368 13.6053 47.0053 13.5888 46.0699C13.5799 45.5494 13.5888 45.6406 13.1439 45.625C11.4977 45.5494 9.84931 45.5082 8.20538 45.4026C6.53697 45.2914 5.06433 44.6373 3.74518 43.6463C3.42667 43.3915 3.17253 43.0653 3.00329 42.6942C2.19245 40.9546 2.05675 39.1516 2.66961 37.3208C2.91406 36.5564 3.40744 35.8958 4.07107 35.4444C5.87962 34.2154 7.84167 33.637 10.0195 34.1242C11.4154 34.4367 12.5466 35.1741 13.1094 36.5445C13.6155 37.7802 13.4798 39.0226 12.7457 40.126C12.1817 40.9757 11.2663 41.3617 10.2887 41.5641C9.55679 41.7154 8.83047 41.6754 8.14643 41.3417C6.8117 40.681 6.73941 39.2996 7.48574 38.3263C7.9629 37.7046 8.70924 37.7769 9.09964 38.4609C9.15433 38.5576 9.20155 38.6584 9.2409 38.7623C9.38884 39.1483 9.52564 39.2506 9.83597 39.195C10.0075 39.1743 10.1657 39.0921 10.2812 38.9637C10.3968 38.8352 10.4619 38.6693 10.4644 38.4965C10.4644 37.8369 10.0195 37.2141 9.34323 36.9471C8.69144 36.6879 8.01741 36.7169 7.34115 36.8359C6.80689 36.9152 6.30247 37.1322 5.8774 37.4654C5.40468 37.8458 5.10437 38.3386 5.11327 38.9436C5.11038 39.5258 5.17118 40.1065 5.29457 40.6754C5.57041 41.8244 6.37236 42.524 7.58807 42.6019C8.7419 42.6936 9.90119 42.6936 11.055 42.6019C12.7902 42.4339 13.8357 41.3695 14.354 39.7278C14.5487 39.0514 14.6546 38.3526 14.6688 37.6489C14.7377 36.114 14.8 34.5783 14.8556 33.0419C14.9268 31.0343 14.9869 29.0255 15.0503 27.0179C15.0482 26.9434 15.0419 26.8692 15.0314 26.7954C14.9279 26.8644 14.8534 26.9122 14.78 26.9634C13.165 28.0756 11.6034 29.2791 9.85154 30.1778C8.15755 31.0465 6.4669 30.9564 4.88637 29.8786C4.3845 29.5294 3.93891 29.1055 3.56499 28.6218C2.7864 27.6207 2.63958 26.4806 3.05001 25.285C3.63963 23.5496 4.04961 21.7584 4.27351 19.9394C4.32022 19.5634 4.36694 19.1886 4.41699 18.7904C4.19453 18.7292 3.9832 18.6636 3.77076 18.6136C3.50026 18.5633 3.24957 18.4373 3.04777 18.2503C2.84598 18.0632 2.70135 17.8228 2.63068 17.5569C2.5548 17.2726 2.38162 17.0238 2.14129 16.854C1.83764 16.6382 1.75644 16.2644 1.88658 15.8996C2.09272 15.3257 2.31517 14.7573 2.55394 14.1945C2.62735 14.021 2.61956 13.922 2.48164 13.7896C1.92551 13.2569 1.36937 12.7219 0.846606 12.1635C0.568155 11.867 0.319308 11.544 0.103607 11.1992C-0.0921521 10.8877 -0.00761987 10.7242 0.332735 10.583C0.64417 10.454 0.702009 10.2738 0.531832 9.97012C0.462449 9.86146 0.402181 9.74725 0.351645 9.62865C0.308794 9.5012 0.31807 9.36197 0.377452 9.24133C0.436834 9.12069 0.541507 9.02843 0.668642 8.98464C0.808681 8.93926 0.951788 8.90394 1.09687 8.87898C1.24146 8.85117 1.38717 8.83671 1.52398 8.81669C1.50396 8.30839 1.4806 7.81565 1.46614 7.31735C1.46053 7.09857 1.49967 6.88096 1.58115 6.67784C1.66263 6.47472 1.78473 6.29038 1.93997 6.13612C2.75192 5.26633 3.73406 4.86035 4.93197 5.00828C5.76728 5.11172 6.60037 5.19959 7.44125 5.28412C7.54655 5.29144 7.65102 5.26109 7.736 5.19848C7.9718 5.00495 8.19759 4.79806 8.41448 4.58228C8.69144 4.30533 9.0051 4.27752 9.39328 4.39876C9.34546 4.52333 9.3132 4.63567 9.26203 4.73911C8.51348 6.23623 7.77715 7.74224 7.00969 9.22712C5.95748 11.267 4.87969 13.2936 3.81414 15.3257C3.7741 15.4058 3.73962 15.4892 3.684 15.6071ZM19.9031 50.1064C20.6194 50.0741 21.2701 50.0496 21.755 49.4924C22.1219 49.0853 22.3835 48.5946 22.5169 48.0631C22.5687 47.8399 22.5687 47.6078 22.5169 47.3846C22.3423 46.665 21.8173 46.2357 21.2056 45.8842C21.0365 45.7874 20.9364 45.8086 20.8074 45.9554C20.3502 46.4804 20.0444 47.0576 20.0288 47.775C20.0043 48.5403 19.9476 49.3033 19.9031 50.1064ZM19.9031 17.9317C19.9977 19.1419 20.0944 20.3899 20.1912 21.6378L20.2579 21.6478L22.9741 17.9317H19.9031ZM27.1885 20.1407C26.7825 18.8983 26.4043 17.736 26.0162 16.547C25.1541 17.1776 24.261 17.6937 23.1498 17.9262L27.1885 20.1407ZM22.6004 12.4438L22.5069 12.3559C22.3118 12.3887 22.119 12.434 21.9297 12.4916C21.7676 12.5635 21.6114 12.6479 21.4625 12.7441C21.5998 12.8834 21.7454 13.0141 21.8985 13.1356C22.0175 13.2202 22.1877 13.2869 22.2867 13.1178C22.4057 12.9054 22.4947 12.6696 22.5981 12.4438H22.6004ZM19.4982 11.9466C19.7096 11.9466 20.0032 12.0334 20.1567 11.7764C20.2223 11.6652 20.1656 11.4216 20.0777 11.3037C20.0103 11.2195 19.9181 11.1585 19.8141 11.1293C19.7102 11.1002 19.5997 11.1044 19.4982 11.1413V11.9466ZM22.428 10.3272C22.3523 10.4818 22.2255 10.6475 22.2055 10.8243C22.1955 10.91 22.3801 11.0846 22.4947 11.1013C22.7394 11.138 22.9007 10.9578 23.0097 10.8143L22.428 10.3272ZM24.0964 9.52187L24.0396 9.43623L23.2366 9.7332C23.3656 9.92118 23.459 10.0613 23.5703 10.2226L24.0964 9.52187ZM23.0953 14.1211L23.023 14.0533C22.9118 14.1823 22.8128 14.3547 22.6682 14.427C22.5236 14.4993 22.3267 14.4748 22.1121 14.4971C22.3056 14.734 22.5125 14.7395 22.6994 14.6539C22.8097 14.6125 22.9058 14.5403 22.9762 14.4459C23.0466 14.3514 23.0884 14.2386 23.0964 14.1211H23.0953ZM18.5762 11.8287C18.5484 11.6585 18.5283 11.5384 18.5039 11.3938L18.0089 11.6318L18.02 11.6952L18.5762 11.8287Z" fill="white"/>
</svg>
