<?xml version="1.0" standalone="no"?>
<!DOCTYPE svg PUBLIC "-//W3C//DTD SVG 20010904//EN"
 "http://www.w3.org/TR/2001/REC-SVG-20010904/DTD/svg10.dtd">
<svg version="1.0" xmlns="http://www.w3.org/2000/svg"
 width="25.000000pt" height="25.000000pt" viewBox="0 0 320.000000 320.000000"
 preserveAspectRatio="xMidYMid meet">

<g transform="translate(0.000000,320.000000) scale(0.100000,-0.100000)"
fill="#FFFFFF" stroke="none">
<path d="M570 3181 c-214 -55 -389 -189 -478 -366 -178 -357 -85 -819 275
-1363 154 -234 402 -531 591 -710 481 -455 1123 -764 1536 -739 172 10 324 78
453 201 242 229 323 532 192 722 -41 61 -88 90 -199 124 -143 45 -681 160
-745 160 -12 0 -77 -57 -165 -145 l-145 -145 -78 34 c-331 145 -652 461 -855
846 l-51 95 170 177 170 177 -26 98 c-53 195 -147 497 -187 599 -47 121 -95
182 -171 221 -70 35 -183 40 -287 14z m215 -160 c50 -23 68 -43 99 -111 26
-57 154 -475 177 -575 l12 -56 -167 -168 -167 -167 21 -54 c141 -357 425 -709
750 -930 111 -76 367 -200 410 -200 6 0 79 67 164 150 l153 150 219 -44 c423
-86 509 -111 553 -161 39 -44 46 -71 46 -165 0 -66 -5 -84 -36 -150 -125 -260
-375 -416 -634 -395 -441 36 -973 344 -1490 862 -365 366 -634 822 -716 1217
-30 141 -29 305 1 401 38 121 105 218 202 293 141 108 302 150 403 103z"/>
</g>
</svg>
